<svg id="SvgjsSvg1001" width="288" height="288" xmlns="http://www.w3.org/2000/svg" version="1.1" xmlns:xlink="http://www.w3.org/1999/xlink" xmlns:svgjs="http://svgjs.com/svgjs"><defs id="SvgjsDefs1002"></defs><g id="SvgjsG1008"><svg xmlns="http://www.w3.org/2000/svg" viewBox="0 0 48 48" width="288" height="288"><path fill="#52cc99" d="M17 26l-3 2H1V45a2 2 0 0 0 2 2H33a2 2 0 0 0 2-2V26zM15 43H5V39H15zM24 9H11V3a2 2 0 0 1 2-2h9z" class="colorbfbfbf svgShape"></path><circle cx="15" cy="5" r="1" fill="#000000" class="color424242 svgShape"></circle><circle cx="19" cy="5" r="1" fill="#000000" class="color424242 svgShape"></circle><path fill="#000000" d="M43,6H31a1,1,0,0,1,0-2H43a1,1,0,0,1,0,2Z" class="color424242 svgShape"></path><rect width="10" height="6" x="14" y="12" fill="#0096ff" rx="1" class="colorfc6459 svgShape"></rect><path fill="#52cc99" d="M19 22H15a1 1 0 0 1 0-2h4a1 1 0 0 1 0 2zM43 22H23a1 1 0 0 1 0-2H43a1 1 0 0 1 0 2zM31 18H27a1 1 0 0 1 0-2h4a1 1 0 0 1 0 2zM43 14H27a1 1 0 0 1 0-2H43a1 1 0 0 1 0 2zM43 18H35a1 1 0 0 1 0-2h8a1 1 0 0 1 0 2z" class="colorbfbfbf svgShape"></path><path fill="#000000" d="M45,0H13a3,3,0,0,0-3,3V22H9.41C7.61,20.2,7.55,20,7,20H3a3,3,0,0,0-3,3V45a3,3,0,0,0,3,3H33a3,3,0,0,0,3-3V36h9a3,3,0,0,0,3-3V3A3,3,0,0,0,45,0Zm1,3V8H24.78l-1.5-6H45A1,1,0,0,1,46,3ZM13,2h8.22l1.5,6H12V3A1,1,0,0,1,13,2ZM3,22H6.59l1.7,1.71c.36.35.64.29,1.71.29v3H2V23A1,1,0,0,1,3,22ZM34,45a1,1,0,0,1-1,1H3a1,1,0,0,1-1-1V29c13.08,0,12.19.07,12.55-.17L17.3,27H34ZM45,34H36V26a1,1,0,0,0-1-1H17c-.45,0-.45.1-3.3,2H12V10H46V33A1,1,0,0,1,45,34Z" class="color424242 svgShape"></path><path fill="#000000" d="M15,38H5a1,1,0,0,0-1,1v4a1,1,0,0,0,1,1H15a1,1,0,0,0,1-1V39A1,1,0,0,0,15,38Zm-1,4H6V40h8Z" class="color424242 svgShape"></path></svg></g></svg>